<svg xmlns="http://www.w3.org/2000/svg" viewBox="0 0 300.003 300.003"><path d="M150 0C67.159 0 .001 67.159.001 150c0 82.838 67.157 150.003 149.997 150.003S300.002 232.838 300.002 150c0-82.841-67.16-150-150.002-150zm67.685 131.647l-56.046 56.046a13.705 13.705 0 01-1.88 2.365c-2.796 2.799-6.484 4.145-10.146 4.08-3.667.062-7.345-1.281-10.141-4.077a14.058 14.058 0 01-1.891-2.368l-56.29-56.297a13.92 13.92 0 01-4.103-9.897 13.952 13.952 0 014.098-9.902c5.47-5.47 14.335-5.467 19.808 0l48.519 48.514 48.262-48.27c5.47-5.47 14.338-5.465 19.81 0 5.471 5.469 5.464 14.334 0 19.806z"/></svg>