<svg id="_лой_2" xmlns="http://www.w3.org/2000/svg" viewBox="0 0 66 82.86"><defs><style>.cls-1{fill:#fff}</style></defs><g id="OBJECTS"><path class="cls-1" d="M7.64 59.87c2.65 2.02 5.37 3.92 8.41 5.31 4.1 1.88 7.32 5.09 11.12 7.43 2.78 1.72 5.06 4.16 7.88 5.84 1.83 1.08 3.47 2.48 5.54 3.2 2.91 1.02 5.85 1.48 8.92 1.06 2.14-.29 4.3-.45 6.31-1.37 2.38-1.1 3.99-3.06 5.59-5.02 1.25-1.53 2.41-3.09 3.18-4.96 1.51-3.62 1.53-7.44 1.33-11.19-.25-4.65-.38-9.29-.53-13.94-.06-2.06-.35-4.12.02-6.16.58-3.14.57-6.31.56-9.47 0-4.86-2.78-8.68-5.45-12.3-3.03-4.1-6.95-7.41-11.62-9.68-1.6-.77-3-1.94-4.77-2.36-3.96-.95-7.73-.04-11.62 1.25.3-.3.49-.48.68-.67.32-.34.55-.81.27-1.18-.3-.4-.73-.08-1.08.11-.66.35-1.32.7-2.06 1.1.08-2.13.55-4.02 1.11-5.9.1-.33.22-.64-.08-.87-.23-.17-.51-.15-.79 0-1.3.7-2.71 1.27-3.57 2.57-1.38 2.08-3.03 3.99-4.1 6.27-.21.45-.35.87-.89.16-.72-.94-1.3-1.94-1.75-3.03-.29-.7-.53-1.64-1.42-1.69-1.34-.06-2.73-.05-3.84.97-1.6 1.47-1.88 2.58-.85 3.9.89 1.14 1.4 2.43 1.77 3.9-1.71-.35-3.41-.01-5.06-.15-2.51-.21-4.83-.05-6.99 1.31-.36.23-.88.32-.82.9.06.55.6.51.94.61 1.81.52 3.52 1.24 5.24 2.26-.67.36-1.25.63-1.79.96-.41.25-1.21.35-.93 1.02.23.55.94.48 1.5.32.11-.03.21-.07.6-.19-2.22 1.73-4.17 3.34-5.66 5.41-.97 1.35-2.01 2.78-2.2 4.45-.41 3.53-.96 7.07-.64 10.64.29 3.26.89 6.46 1.95 9.58.83 2.44 2.31 4.52 3.37 6.83.51 1.11 1.26 2 2.22 2.74zM32.31 6.75c-.97.77-1.7 1.86-3.19 2.33 1-1.13 2-1.85 3.19-2.33zm-2.52-4.32c-.07 3.57-2.07 6.12-4.18 8.58-.56.65-.23 1.41-.66 2.09-.6.96-.94 2.08-2.01 3.05.94-5.44 2.13-10.44 6.86-13.72zm-15.1 5.72c-.27-.57.8-2.33 1.58-2.53.64-.17 1.32-.24 1.98-.28.69-.04.74.62 1.11 1.16.69 1.73.58 3.7.59 5.65 0 .36-.24.54-.56.32-1.76-1.23-3.73-2.24-4.71-4.32zm1.71 3.49c1.08 1.17 2.39 1.66 3.4 2.54.35.31.55.23.82.06.28-.17.59-.22.52-.78-.18-1.33.15-2.69-.21-4.24 1.88 2.2.42 4.39.71 6.79-1.84-1.56-4.45-1.6-5.24-4.38zM5.79 15.2c5.4-2.11 10.21-.25 15.18 1.95-1.76.53-3.34.12-4.72-.36-.64-.22-1.12-.22-1.66-.14-3.21.48-5.77.09-8.79-1.45zm2.24 4.5c1.06-.74 2.22-1.15 3.62-1.35-1.14 1.03-2.49.9-3.62 1.35zM2.04 40.8c-.16-1.56-.58-3.12-.51-4.67.24-5.25 1.71-10 5.95-13.56.87-.73 1.84-1.32 2.77-1.83 1.78-.98 3.13-2.87 5.45-2.78.55.02 1.11.09 1.65.19 3.18.6 6.05-.46 7.6-2.9.53-.83.91-1.76 1.35-2.66.4-.81.94-1.47 1.81-1.79 3.26-1.21 6.27-3.03 9.87-3.4 2.79-.29 5.34.26 7.83 1.27 5.53 2.24 9.35 6.7 13.46 10.74 1.18 1.16 1.93 2.76 2.59 4.29 2.89 4.2 2.68 8.97 2.34 13.65-.24 3.36-.53 6.68-.49 10.06.06 5.12-.25 10.24-.25 15.37 0 1.63.18 3.19-.74 4.67-.4.64-.01 1.46-.31 2.24-1.26 3.36-3.08 6.35-5.66 8.8-1.06 1-2.47 1.61-3.99 1.79-3.55.43-7.17.5-10.47-.88-1.74-.73-3.58-1.26-5.24-2.51-4.09-3.06-8.74-5.39-12.81-8.47-4.11-3.1-9.03-4.77-13.01-8.01-2.14-1.75-4.04-3.59-5.46-6.1-2.41-4.25-3.24-8.81-3.73-13.53z"/><path class="cls-1" d="M28.31 44.43c3.01 3.76 5.93 7.59 8.93 11.36 3.62 4.54 7.5 8.82 11.62 12.9.25.24.48.65.99.38.55-.29.33-.72.26-1.12-.45-2.55-1.01-5.08-1.6-7.61-1.22-5.24-2.96-10.33-4.6-15.45-.94-2.93-1.81-5.89-2.87-8.78-.82-2.24-1.12-4.66-2.47-6.93-.25-.87-.97-1.7-1.69-2.49-2.4-2.61-4.88-2.69-7.52-.21-.52.49-.59.61-1.11 0-.44-.51-.91-1.61-1.67-1.23-.81.4-.17 1.43.04 2.04.3.87-.03.78-.66 1-1.2.43-2.63.37-3.41 1.81-1.22 2.24-.77 4.35.12 6.48 1.26 3.05 3.65 5.33 5.65 7.83zm-4.68-8.12c-.64-1.55-1.24-3.14-.74-4.91.37-1.32 1.31-1.94 2.48-2.13 2.07-.33 3.76-1.2 5.17-2.76 1.21-1.34 3.28-1.31 4.63-.12 2.11 1.86 3.17 4.27 3.9 6.92.79 2.85 1.72 5.66 2.64 8.47 1.02 3.16 2.11 6.3 3.17 9.44 1.22 3.63 2.08 7.34 3.02 11.03.4 1.58.7 3.2 1.05 4.8-3.94-3.81-7.72-7.67-10.98-12.01-3.46-4.62-7.02-9.16-10.6-13.69-1.3-1.65-2.92-3.07-3.74-5.05zm28.32 35c-.52.24-1.36.32-1.43.93-.09.88.12 1.79.27 2.68.05.29.29.53.57.12.56-.81.66-.81 1.17.08.63 1.09 1.04 2.34 2.28 3.24-.05-1.53-.86-2.56-1.41-3.69-.45-.92-.4-1.01.58-1.02.23 0 .39-.04.34-.33-.04-.3-2.11-2.13-2.37-2zm7.07-44.7c.82 1.67 1.87 3.19 2.27 5.11-.6-.53-.57-1.4-1.39-1.81.04 1.04.8 1.65.98 2.5.18.87.56 1.7.89 2.67.57-2.9-1.09-7.97-2.75-8.47zM12.54 57.97c-.52-1.11-1.29-1.67-1.67-2.53-.38-.86-.88-1.68-1.42-2.69-.15 2.33 3.05 6.34 5.59 7.14-1.24-1.4-2.2-2.84-3.2-4.26-.1.81.58 1.3.7 2.34zM46.45 75.9c.32.53 1.02.57 1.37 1.33-1.55-.84-2.93-1.58-4.35-2.35-.03.65.48.68.76.94 1.79 1.7 4.36 1.27 6.38 2.32.1.05.14 0 .08-.24-1.33-.71-2.64-1.64-4.23-2zm11.34-4.07v-.01.01zm.48-4.85c-.16 1.65-.31 3.19-.48 4.85.84-1.24 1.15-3.63.48-4.85z"/><path class="cls-1" d="M57.27 69.77c-.3 1.82-.51 3.41-.48 5.22.59-.69.39-1.35.58-1.92.09-.29-.1-.64.16-.91.1-.1.18-.22.27-.34-.57-.62.11-1.32-.52-2.06zM4.74 28.54c-1.47.97-2.8 6.34-2.09 7.95.8-2.61.66-5.38 2.09-7.95zm44.58-16.8c-1.44-1.7-6.42-3.45-7.81-2.68 2.9.16 5.07 1.88 7.81 2.68zm-8.06 64.88c-2.06-1.41-4.48-2.13-6.56-3.53 1.68 2.1 4.16 2.74 6.56 3.53zm20.39-17.91c.11 2.52-.81 4.94-.69 7.45.67-2.44 1.53-4.87.69-7.45zM17.97 45.34c-2.05.8-3.9 1.16-5.82 2.12 1.41.08 4.94-1.15 5.82-2.12zm34.92-19.4c-1.73.88-3.15 2.11-4.51 3.42 1.82-.75 3.13-2.15 4.51-3.42zM25.44 48.68c.19-.19.16-.33.06-.52-.18-.33-.41-.16-.6-.03-.85.57-1.5 1.3-1.88 2.53 1.28-.35 1.73-1.3 2.42-1.98zm21.19-12.14c-.23.18-.56.18-.53.5.02.18.13.45.36.41.88-.16 1.82-.1 2.64-.55.13-.07.34-.14.26-.33-.05-.12-.22-.26-.35-.27-.82-.06-1.63.04-2.38.24zm1.09-3.43c-.3-.57-.96.16-1.46.33-.08.03-.14.07-.3.16-.27.37-1.38.3-1.08.94.21.47 1.18.11 1.72-.2.51-.29 1.39-.72 1.12-1.23zm-23.7 12.47c-.32-.5-.86.24-1.31.4-.38.13-.72.38-1.08.56-.37.18-.57.43-.38.91.64-.21 1.39-.15 1.88-.64.36-.36 1.23-.69.88-1.23zm13.3-34.3c-.39 1.85-1.21 3.61-1.49 5.51 1.1-1.67 1.43-3.55 1.49-5.51zM14.34 28.22c-1.73-.79-3.62-1.15-5.41-1.82 1.66 1 3.39 1.8 5.41 1.82zm48.75 13.97c-1.58.58-3.23.9-4.88 1.26 1.75.14 3.44 0 4.88-1.26zM23.95 61.67a34.088 34.088 0 01-3.74 3.36c1.83-.49 2.91-1.8 3.74-3.36zM2.92 40.05c-.49 1.76.3 3.19 1.24 4.57-.24-1.57-1.11-2.97-1.24-4.57zm48.73-26.16c1.66 1.02 2.3 2.52 3.45 3.6-1-2.42-1.83-3.34-3.45-3.6zm-2.14 57.86c-.05.12-.09.22-.13.33-.33.84-.14 1.71-.11 2.56 0 .11.23.32.3.3.17-.05.45-.2.45-.32 0-.86-.06-1.72-.08-2.58 0-.32-.27-.21-.42-.3zm-6.15-41.13a.41.41 0 00-.09.54c.11.19.29.11.43.04.91-.49 1.61-1.17 2.24-2.41-1.34.39-1.84 1.27-2.58 1.83zM19.01 43.18c.05.24.3.31.48.28.73-.13 1.46-.29 2.07-.42.28-.23.62-.26.55-.57-.06-.29-.36-.31-.59-.26-.72.17-1.44.37-2.15.59-.17.05-.42.13-.36.39zm33.58 27.15c-.14-.03-.3-.13-.36.11-.04.16-.05.24.13.37.68.46 1.33.97 1.99 1.45.21.16.39 0 .53-.11.15-.12.08-.28-.07-.51-.68-.42-1.29-1.13-2.22-1.31zm-10.6-53.76l4 2.95c-.95-1.46-2.28-2.46-4-2.95zM10.73 33.24h-.31c-.25 1.69-.17 3.36.51 4.99l-.19-4.99zm5.99 27.4l-2.75-3.28c.32 1.58 1.32 2.61 2.75 3.28zm44.76-23.48c.3-1.82-.37-3.88-1.31-4.47.43 1.45.82 2.8 1.31 4.47zM27.15 51.62c-.8.42-1.35 1.03-1.43 2.09.87-.33 1.36-.93 1.88-1.5.2-.22.39-.47.17-.72-.21-.24-.43.03-.62.13zm22.28-10.66c.46-.05.79-.22 1.27-.62-.43-.1-.73-.23-1.04-.24-.72-.03-1.39.17-1.97.61-.06.04-.08.26-.04.29.6.45 1.18.02 1.77-.04zm2.34 23.61c.99.44 1.91.36 2.82.29.11 0 .22-.19.28-.32.02-.04-.14-.22-.23-.23-.93-.12-1.9-.63-2.87.26zm-8.46 6.15c1.05-.5 1.36-1.49 1.69-2.48-1.27.36-1.43 1.45-1.69 2.48zm-5.47-4.68c.14.1.3.14.42 0 .61-.7 1.59-1.17 1.53-2.48-1 .47-1.37 1.37-1.94 2.07-.07.08-.19.28-.02.41zm15.84-8.31c.2-.06.38-.04.39-.28.01-.28-.26-.29-.42-.27-.87.07-1.78-.06-2.77.44 1.04.69 1.91.39 2.8.11zM44.69 31.7c-.09.09-.14.29-.11.42.05.2.25.17.38.08.79-.5 1.81-.66 2.42-1.87-1.17.32-2 .72-2.69 1.38zm-22.2 12.42c-1.29-.26-2.57.35-3.11 1.29 1.18.09 1.96-.69 3.11-1.29zm-3.5-8.03c-.79.3-1.73.16-2.56.93 1.04.13 1.91.05 2.76-.21.26-.08.44-.29.37-.54-.07-.25-.33-.27-.57-.18zM39.8 25c-.24.16-.37.42-.25.58.19.24.53.19.75-.02.62-.58 1.23-1.17 1.61-2.15-1.04.3-1.44 1.12-2.11 1.58zm14.21 26.32c-1.01-.21-1.87-.16-2.73.1-.22.07-.36.18-.33.4.03.29.27.18.45.21.93.17 1.75-.05 2.61-.71zm-19.04 9.01c-.3-.27-.51.01-.7.19-.6.54-1.08 1.17-1.45 2.06 1-.33 1.62-.85 1.99-1.65.08-.18.45-.33.16-.6zm8.41-47.19c-.77-.83-1.55-1.63-2.68-1.91-.21-.05-.4-.08-.5.15-.05.1-.02.23-.03.35 1.27.03 1.99 1.27 3.22 1.42zM7.51 28.87c-.43-.18-.46.16-.53.42-.33 1.06-.17 2.11.31 3.18.07-1.02.15-2.04.19-3.06 0-.18.5-.33.03-.53zm45.03 37.82c.93.23 1.8.85 2.93.23-.82-.26-1.64-.53-2.46-.78-.25-.08-.48.04-.6.27-.03.06.06.26.13.28zm-7.48 6.06c1.02-.71.95-1.68 1.27-2.45.08-.2.25-.49-.08-.6-.24-.08-.49.09-.55.34-.2.83-.66 1.61-.64 2.72zm-7.83-11.1c.08-.14.22-.34-.04-.48-.2-.11-.36-.11-.52.07-.58.64-1.17 1.28-1.92 2.09 1.29-.18 1.96-.84 2.48-1.68zm13.17-7.49c.02.33.3.25.52.27.96.09 1.75-.27 2.38-1.1-.82.15-1.64.33-2.47.42-.32.04-.45.14-.43.41zm-30.93-22.7c-1.08-.28-2.07-.19-3.19-.04 1.18.83 2.27.84 3.19.04zM37.34 20.2c-.68.84-1.29 1.61-1.76 2.75 1.37-.51 1.93-1.42 1.76-2.75zm-2.24.77c-.01.16-.26.36.07.46.14.04.22.06.37-.1.51-.52.81-2.37.4-3.17-.26.87-.5 1.66-.74 2.46-.03.11-.09.23-.1.34zm-17.04 9.54c.19 0 .48.13.52-.27.03-.33-.24-.25-.38-.3-.9-.3-1.8-.59-2.71-.88l-.17.36c.9.38 1.68 1.05 2.74 1.08zm35.98 24.56c-1.31.02-2.22.32-3.4.71 1.43.7 2.29.15 3.4-.71zm-15.71 7.26c-.88.75-1.68 1.29-2.12 2.22 1-.34 2.1-.63 2.12-2.22zM22.99 24.81s.02.01.04.01h-.04zm-.38.72c.22.05.52.24.62-.06.06-.17-.14-.42-.24-.64-.9.07-1.68-.74-2.67-.47.69.67 1.47.97 2.28 1.17zm5.96-2.91c.31.09.33-.27.4-.48.27-.81.53-1.62.21-2.72-.39 1.01-.7 1.83-1.02 2.65.13.2.23.51.4.56zm-.4-.56zm20.36 21.83c1.23.94 1.88-.17 2.7-.51-.95-.23-1.81-.06-2.7.51zM27.77 55.84c.78-.44 2.03-.44 1.98-1.96-.97.45-1.6 1.05-1.98 1.96zm28.28-15.29c.22-1.22.08-2.38-.48-3.48-.18 1.21.09 2.36.48 3.48zM22.8 58.25c-.79-.9-1.51-1.86-2.68-2.33.65 1.05 1.48 1.9 2.68 2.33zm7.86.79c.58-.88 1.56-1.49 1.74-2.86-1.12.8-1.76 1.63-1.74 2.86zm21.63-11.53c-1-.66-2.03-.64-3.08-.07 1.03.42 2.05.17 3.08.07zM25.6 23.47c.22-.12.43-.23.26-.54-.27-.51-.47-1.09-1.24-1.19-.18.64.08 1.14.38 1.65.18.3.38.2.6.08zm27.03 45.27c-.11.14-.26.38-.1.48.6.35 1.22.67 1.86.92.22.09.59-.02.49-.44-.05-.21-2.03-1.04-2.25-.96zm-4.59 2.5c-.29.68-.54 1.4-.47 2.16.04.51.43.35.56.14.43-.68.12-1.52.41-2.25-.18-.03-.4-.3-.5-.05zm11.44-6.14l-.27 3.95c.49-1.29.83-2.6.27-3.95zM44.65 76.81c-1.14-.66-2.28-1.31-3.42-1.97.82 1.18 2.06 1.67 3.42 1.97zm7.92-15.48c-.13-.06-.36-.25-.46.08-.08.27-.07.44.24.57.65.26 1.33.24 2.12.24-.37-1.09-1.3-.61-1.89-.89zm-10.53 5.39c-.07.75-1.08 1.29-.44 2.33.47-.62.85-1.17 1-1.86.05-.22.06-.42-.18-.49-.11-.03-.36-.24-.38.02zM8.71 48.39c-.99-.29-1.79.24-2.64.58 1 .42 1.81-.14 2.64-.58zm48.83-26.24c.19-.12.27-.4.1-.63-.04-.05-.27-.04-.31 0-.47.68-1.51.85-1.73 1.92.88-.23 1.31-.89 1.93-1.3zm-37.2 4.38c.28 0 .75.16.8-.29.06-.58-.47-.19-.7-.27-.42-.15-.91-.12-1.67-.19.57.7 1.08.74 1.57.75zm10.27-5.22c.61-.42.9-1.06.84-1.82 0-.02-.06-.04-.24-.17-.1.17-.17.3-.25.43-.13.24-.27.47-.4.72-.38.74-.31 1.08.05.84zm-2.45.79v-.04s0 .01-.01.02c0 0 0 .02.01.02zm-.02-.02c-.27-.43.35-1.03-.27-1.42-.42.6-.54 1.27-.55 1.97.55.14.56-.38.82-.55zm-4.2 2.35c-.59-.38-1.21-.68-1.94-.63-.04.72.82.53 1.02 1 .29-.12.73.16.92-.37z"/><path class="cls-1" d="M23.03 24.83s0-.02-.01-.02h-.03.04zm38.81 27.48l-2.46.36c.81.4 1.57.46 2.46-.36zM31.01 67.72c-.57.63-1.05 1.17-1.53 1.71 1.15-.34 1.39-.63 1.53-1.71zM24.7 23.91c.28-.07.12-.31.02-.52-.33-.17-.58-.64-1.07-.51-.28.07-.17.36-.03.47.31.27.59.69 1.08.56zm1.78-.92c.33-.37.17-.81.12-1.22-.02-.17-.19-.43-.41-.24-.38.33-.19.8-.14 1.21.02.17.15.38.43.25zm-7.54 6.06c-.51-.42-.97-.79-1.7-.68q.63.66 1.7.68zm15.37-9.82c-.44.61-.43 1.2-.25 1.81.17-.56.76-1.07.25-1.81zm12.56-4.43c.48-.25.78-.64 1.09-1.33-.67.41-.98.8-1.09 1.33zM4.85 43.87c-.34-.45.04-1.14-.54-1.57-.31.76.23 1.11.54 1.57zm1.88-7.8c-.68.06-1.18 0-1.88.37q1.16.09 1.88-.37zm47.41-18.42c-.24-.48-.24-1.13-1.03-1.34.02.72.76.84 1.03 1.34zm-8.41 43.69c-2.86-3.1-5.58-6.24-8.44-9.26l-.23.19c.15.28.26.61.46.85 2.67 3.1 5.35 6.2 8.06 9.28.2.22.54.62.92.41.48-.27.3-.82.2-1.19-.59-2.41-1.2-4.82-1.89-7.2-.53-1.8-.77-3.71-1.86-5.33.7 4.13 1.94 8.14 2.79 12.27zM31.46 45.36c1.16 1.46 2.19 3.03 3.58 4.3l.26-.17c-.56-.71-1.16-1.38-1.66-2.13-2.05-3.06-4.55-5.76-6.73-8.71-1.14-1.53-2.31-3.25-1.19-5.37.05-.1-.04-.31-.11-.44-.09-.18-.25-.11-.41-.06-.58.19-.71.74-.7 1.17.02 1.4.35 2.81 1.15 3.92 1.85 2.56 3.85 5.01 5.81 7.49zm10.27-.91c-.85-2.67-1.69-5.34-2.6-7.99-.75-2.19-1.07-4.57-2.59-6.45-.64-.79-1.25-1.65-2.35-1.84-.37-.06-.81.06-.81.48 0 .4.3.45.7.29.16-.06.47.2.69.35 1.59 1.03 2.36 2.59 2.89 4.35.89 2.94 1.86 5.86 2.83 8.79.4 1.22.89 2.41 1.33 3.61l.27-.13c-.12-.49-.2-.99-.36-1.46zm-9.21-15.62c-2.63.19-4.74 1.32-6.34 3.41 2.09-1.2 4.24-2.27 6.34-3.41z"/><path class="cls-1" d="M38.4 43.21c.93 2.59 1.85 5.17 2.88 8.06.21-1.89-1.96-7.64-2.88-8.06zm1.37 8.59c-1.69-2.28-3.3-4.47-4.99-6.75-.02 1.28 3.78 6.42 4.99 6.75zm2.5 3.08c-.51 0-.39-.98-1.07-.66.38 1.21 1.2 2.07 2.41 3.01-.25-1.47-.34-2.69-1.25-3.6-.64.39.4.86-.09 1.25zM29.53 31.53c-.12.64-.32 1.3.38 1.81q.3-1.09 1.51-.83c-.12-.82-.75-1.06-1.38-1.3-.3-.12-.46.05-.51.32zm7.95 8.92c-.52-.97-1.03-1.94-1.55-2.91l-.27.18c.6.93.88 2.05 1.82 2.73zm-6.03-.5c.52.97 1.03 1.94 1.55 2.91-.03-1.22-.74-2.09-1.21-3.08l-.34.17zm-1.78-3.47l-.44-2.74c-.84 1.27-.05 1.97.44 2.74zm4.67-2.59c-.6-.58-.76-1.67-2.22-1.66l1.99 1.89.22-.23z"/></g></svg>