<svg height="512" width="512" xmlns="http://www.w3.org/2000/svg"><linearGradient id="a" gradientUnits="userSpaceOnUse" x1="84.679" x2="404.429" y1="427.321" y2="107.571"><stop offset="0" stop-color="#fee411"/><stop offset=".052" stop-color="#fedb16"/><stop offset=".138" stop-color="#fec125"/><stop offset=".248" stop-color="#fe983d"/><stop offset=".376" stop-color="#fe5f5e"/><stop offset=".5" stop-color="#fe2181"/><stop offset="1" stop-color="#9000dc"/></linearGradient><circle cx="256" cy="256" fill="url(#a)" r="225"/><g fill="#fff"><path d="M303.8 131h-95.5c-42.6 0-77.2 34.6-77.2 77.2v95.5c0 42.6 34.6 77.2 77.2 77.2h95.5c42.6 0 77.2-34.6 77.2-77.2v-95.5c0-42.6-34.6-77.2-77.2-77.2zm49.3 172.8c0 27.2-22.1 49.4-49.4 49.4h-95.5c-27.2 0-49.4-22.1-49.4-49.4v-95.5c0-27.2 22.1-49.4 49.4-49.4h95.5c27.2 0 49.4 22.1 49.4 49.4z"/><path d="M256 192.1c-35.2 0-63.9 28.7-63.9 63.9s28.7 63.9 63.9 63.9 63.9-28.7 63.9-63.9-28.7-63.9-63.9-63.9zm0 102.7c-21.4 0-38.8-17.4-38.8-38.8s17.4-38.8 38.8-38.8 38.8 17.4 38.8 38.8-17.4 38.8-38.8 38.8z"/><circle cx="323.1" cy="188.4" transform="rotate(-9.25 323.353 188.804)" r="10.8"/></g></svg>