<svg id="_лой_2" xmlns="http://www.w3.org/2000/svg" viewBox="0 0 84.79 72.86"><defs><style>.cls-1{fill:#fff}</style></defs><g id="OBJECTS"><path class="cls-1" d="M84.46 52.06c-1.16-6.68-3.27-13.12-5.24-19.59-1.37-4.5-3.64-8.64-6.33-12.52-1.46-2.11-2.88-4.25-4.98-5.83-1.57-1.18-3.43-1.87-5.04-2.99-3.07-2.12-6.26-3.91-10.1-4.3-2.95-.3-5.9-.23-8.8.16-2.61.35-5.16 1.14-7.74 1.98.95-2.76 1.88-5.45 2.99-8.08.11-.27.3-.5.07-.76-.3-.35-.53.04-.77.13-1.22.45-2.21 1.38-3.48 1.75-2.16.63-3.45 2.15-4.33 4.12-1.08 2.42-2.15 4.84-3.36 7.55-.05-1.31-.15-2.3-.2-3.28-.14-2.84-1.37-5.18-2.99-7.39-.24-.34-.49-.46-.83-.07-.48.55-.99 1.06-1.44 1.65-1.42 1.82-2.27 3.8-2.2 6.17.06 2.27.71 4.43 1.02 6.73-.78-.45-1.47-.91-2.22-1.25-2.25-1.01-4.22-2.38-5.87-4.22-.3-.33-.66-.62-1-.92-1.09-.97-2.41-1.6-3.51-2.54-2.03-1.74-3.96-3.57-5.59-5.69-.38-.49-.81-.42-1.23-.09-1.52 1.23-1.66 2-.61 3.6 1.01 1.54 1.86 3.2 3.31 4.39 1.05.86 2.17 1.64 3.16 2.56 2.86 2.65 6.08 4.76 9.56 6.48.92.46 1.83.88 2.31 1.89-1.12.76-2.34 1.35-3.68 1.74-1.33.39-2.72.37-4.06.69-3.79.9-6.25 3.79-9.08 6.12-.61.5.2.78.39.87.74.33 1.56.45 2.36.61 2.65.51 4.97-.31 7.21-1.51.58-.31 1.07-.76 1.92-.87-.59.89-1.23 1.54-1.9 2.18-1.85 1.75-3.56 3.55-4.19 6.18-.24.99-.41 2.01-.72 2.99-.11.36-.22.88.07 1.1.35.26.81-.03 1.14-.27.83-.59 1.75-.96 2.76-1.43-.45 2.76-.65 5.41-.19 8.03.91 5.12 3.43 9.51 6.71 13.42 3.09 3.68 7.11 6.08 11.75 7.42 5.67 1.64 11.43 2.88 17.33 3.11 3.95.15 7.89.42 11.83.62 3.44.17 6.93.39 10.38-.33 2.77-.58 5.63-.38 8.44-.63 2.49-.22 4.31-1.32 5.22-3.64.89-2.26 1.67-4.53 1.85-7.02.22-3.02.42-6.05-.09-9.01zM29.25 11.18c1.05-1.95 1.63-4.12 2.86-5.99.62-.95 1.37-1.74 2.58-2.12-.22.68-.79 1.19-.74 1.91.5.04.36-.58.74-.62.26.24-.39.65.13.77.28.06.43-.31.59-.51.87-1.1 1.7-2.22 2.61-3.3-.49 1.7-1.99 2.86-2.5 4.62.69-.01.6-.75 1.2-.96-.76 1.74-.87 3.65-2.55 4.83.36-.79.72-1.57 1.08-2.36-1.02.85-1.5 2.03-2.36 2.99.47-1.08.93-2.17 1.4-3.25-1.22 1.09-1.62 2.66-2.57 3.91.29-1.53 1.44-2.75 1.59-4.48-.82.86-1.09 1.89-1.72 2.86 0-1 .73-1.69.78-2.75-1.69 1.99-1.48 4.95-3.97 6.33.11-.77.53-1.31.84-1.89zm-8.9-.57c0-2.25.67-3.95 2.37-5.89-.17 1.01-.26 1.88-.48 2.72-.24.9-.17 1.8-.03 2.73.24-1.33.48-2.66.78-4.29.4 2.06-.55 3.86.15 5.77.6-1.71.26-3.36.57-4.95.37 1.2.28 2.47.84 3.62V7.95c.42.41 0 1.05.63 1.22.16-1.11-.25-2.14-.38-3.25.65.89 1.12 2.09 1.23 3.8.07 1.12.02 2.26.26 3.36.22 1.01-.42 1.58-.92 2.43-.41-1.27.21-2.55-.59-3.74v4.22c-.88-1.04.03-2.37-.85-3.58v3.07c-.17-.8-.31-1.59-.76-2.35.11 1.35.22 2.7.32 4.06h-.29c-.43-1.49-.18-3.13-.86-4.58-.11 1.75.24 3.45.23 5.2-.72-1.99-.8-4.11-1.25-6.18-.44.12-.37.5-.31.75.41 1.9.41 3.89 1.14 5.72.08.2-.02.27-.11.33-.22.13-.15-.12-.22-.19-.68-.68-.51-1.6-.7-2.42-.4-1.71-.77-3.43-.76-5.21zM2 3.5c2.31 2.93 4.83 5.64 8.02 7.67.79.5 1.51 1.16 2.13 1.86 1.57 1.78 3.6 2.89 5.61 4.04.86.49 1.72.99 2.63 1.39.46.2.41.47.34.95-1.91-1.05-3.56-2.42-5.55-3.2-2.85-1.12-5.09-3.08-7.32-5.12-1.94-1.78-3.82-3.58-5.41-5.67-.46-.61-.72-1.29-.94-1.98.26-.19.4-.06.5.07zm15.81 16.02c-2.66-1.42-5.3-2.89-7.72-4.69a89.283 89.283 0 01-6.15-4.99C2.49 8.55 1.83 6.66.71 5.1c-.2-.27-.14-.69.28-.91.43 1.62 1.53 2.87 2.62 4.02 2.82 2.99 5.72 5.95 9.37 7.91 2.16 1.16 4.4 2.18 6.52 3.44.94.56.73.85.18 1.42-.38-.83-1.18-1.09-1.87-1.46zm-3.76 8.86c-2.98 1.54-5.8 3.55-9.33 2.51 1.82-.2 3.5-.95 4.82-2.45-1.97 1.02-3.95 1.95-6.41 1.96 2.84-2.21 5.12-5.01 8.79-5.61 1.59-.26 3.21-.34 4.74-.94.36-.14.72-.29 1.14-.35-1.19 1.69-1.69 3.82-3.75 4.88zm2.37 4.3c-.29-.41-.4-.86-.25-1.36.74.34.7.81.25 1.36zm.26-4.36c.12.61.15 1.12-.24 1.58-.4-.57-.14-1.04.24-1.58zm.19 1.5c.03.05.07.11.09.17.13.38.48.72.22 1.19-.1.18-.14.17-.24 0-.25-.44-.52-.87-.08-1.35zm-1.05 2.93c.08.5.51.96-.09 1.44.1-.49-.62-.92.09-1.44zm-.36-1.91v1.37c-.52-.43-.51-.84 0-1.37zm-.39 4.67v-1.37c.13.41.75.79 0 1.37zm-4.1 3.32c-.58 1.25-2.06 1.01-2.79 1.9.21-3.86 2.12-6.74 5.16-9-.05.57-.42.92-.79 1.27-.92.85-1.81 1.76-2.14 2.99-.23.87-.29 1.79-.72 2.63 1.11-.77 1.47-2.07 2.27-3 .04.8-.3 1.71-.99 3.21zm72.89 18.68c-.27 3.04-.29 6.15-1.89 8.96.82-2.72.67-5.47.6-8.23l-.38-.02c0 .63-.01 1.27 0 1.9.04 2.13-.2 4.23-.81 6.27-.17.57.49.93.06 1.65-.87 1.45-1.94 2.17-3.64 2.4-3.89.53-7.81.5-11.71 1.12-2.79.44-5.74.27-8.62-.07-2.15-.25-4.35-.14-6.51-.33-2.14-.19-4.3.03-6.42-.16-2.53-.24-5.05-.68-7.54-1.24-3.26-.74-6.55-1.39-9.65-2.74-4.5-1.96-8.09-4.95-10.61-9.19-1.33-2.24-2.71-4.46-3.51-6.97-.94-2.95-1.12-5.95-.75-9.04.23-1.89.52-3.76 1.01-5.91.37 1.57-.61 2.74-.32 4.02.44-1.42 1.3-2.68 1.34-4.22.66.82.29 1.63 0 2.39-.45 1.22.05 3.01 1.27 3.4.81.26 1.32.82 2.02 1.17.31.15.71.4.96.15.26-.26.21-.71-.05-1.05-.6-.8-.61-1.85-1.15-2.71-.62-.99-1.48-1.22-2.6-1.39 1.32-.18.03-1.34.82-1.7.31.24.27.74.72.99.12-.88-.75-1.59-.28-2.52.59.53.61 1.45 1.3 1.91 0-1.32-1.5-2.4-.45-3.84.39.52.7 1.08 1.32 1.45-.05-.97-1.09-1.51-.99-2.58.42.52.59 1.12 1.08 1.46.29-.27-.03-.48 0-.64.25-1.98-1.27-3.69-.83-5.76.47 1.54.68 3.1 1.68 4.38-.23-.94-.46-1.89-.71-2.92.31.18.32.54.66.56.14-.77-.6-1.41-.36-2.24.49.52.51 1.39 1.57 1.79-.67-1.37-1.22-2.54-1.36-4.13.52 1.05.7 1.95 1.1 2.75.45.9 1.14 1.5 1.91 2.08-.62-1.17-1.36-2.23-1.86-3.47-.62-1.55-.32-2.73.75-3.86 3.03-3.21 6.15-6.31 9.93-8.66 1.23-.76 2.65-1.12 3.9-1.73 1.46-.71 2.95-1.21 4.46-1.69 4.42-1.4 8.98-1.53 13.55-1.29 2.51.13 4.78 1.17 6.91 2.46s4.21 2.66 6.38 3.88c2.62 1.47 4.2 3.98 5.81 6.41 2.71 4.06 5.03 8.33 6.43 13.01 1.68 5.62 3.5 11.21 4.79 16.94.5 2.23.87 4.52.66 6.83zM15.69 38.58c.96.55 1.86 1.15 1.9 2.39 0 .15.29.29.07.41-.12.06-.36.02-.48-.07-.92-.68-1.09-1.76-1.49-2.73z"/><path class="cls-1" d="M59.45 34.27c-.47-.48-1.09-.31-1.66-.12-.63.21-.84.68-.82 1.3.03 1.3.91 1.99 1.87 2.66 1.28.9 2.78.33 4.14.71.24.07.51-.31.16-.67-1.24-1.29-2.43-2.61-3.69-3.88zm.31 2.72c-.24-.09-.64-.57-.69.18 0 .04-.08.11-.11.11-.67-.12-.89-.66-1.15-1.19-.23-.45-.36-.85.11-1.19.45-.32.88-.25 1.26.15.69.72 1.49 1.35 2.02 2.36-.58-.05-1-.25-1.44-.42zm7.84-12.6c-.67-1.34-1.47-1.64-2.91-1.2-1.39.42-1.53 1.49-.46 2.24 1.3.92 2.75 1.63 4.15 2.39.24.13.4-.17.45-.41-.37-.71-.74-1.39-.86-2.19-.04-.29-.24-.56-.38-.83zm-2.43.58c-.39-.19-.86-.52-.62-.83a.97.97 0 011.39-.1c.7.61 1.11 1.41 1.53 2.53-.8-.81-1.53-1.23-2.29-1.6zM49.09 63.46c.63.37 1.36.47 2.15.39.72.2 1.44-.27 2.21-.2.31.03.64-.08.72-.32.09-.28-.11-.63-.36-.8-.96-.66-1.93-1.3-2.94-1.89-.66-.38-2.15.1-2.49.71-.32.58 0 1.69.7 2.1zm2.99-.84c-1.11-.11-2.11-.27-3.03-.98 1.48-.71 1.74-.62 3.03.98zm-1.35.5c-.68.05-1.49.41-1.8-.67.64.24 1.22.45 1.8.67zm-6.58-38.76c-.38.8.06 1.98.9 2.23 1.15.34 2.32.6 3.61.67.22-.28.73.33.92-.26.15-.49-.22-.79-.54-1.05-.93-.76-1.81-1.58-2.94-2.08-.95-.42-1.58-.29-1.95.48zm.82.12c.71.79 1.62 1.21 2.5 1.77-1.88.27-3-.48-2.5-1.77zm31.11 10.36c.41.64-.48.85-.19 1.52.97 2.27 1.75 4.63 2.6 6.95.13.34.26.68.73.8-1.15-4.21-1.77-8.53-3.87-12.54-.21.46-.17.79-.02 1.16.27.7.36 1.5.75 2.12zM28.6 20.87c.26.11.51-.07.6-.3.14-.36-.25-.36-.43-.46-1.04-.58-1.05-.57-1.28-1.25 1.45.3 2.79.93 3.96 1.97-.47.28-.9-.1-1.37-.16-.23-.03-.48-.21-.59.13-.13.37.27.4.43.46.69.25 1.41.33 2.15.26.19-.02.44.11.53-.17.07-.22 0-.39-.18-.56-.73-.71-1.4-1.5-2.18-2.15-.76-.63-1.73-.8-2.71-.71-.7.06-1.01.68-.89 1.36.21 1.12 1.16 1.25 1.95 1.58zm1.43 24.66c.46.45.96.77 1.55.98 1.16.4 2.31.21 3.49-.03 0-.46-.42-.51-.61-.68-.92-.83-1.79-1.78-2.94-2.3-.53-.24-1.21-.46-1.67.13-.5.64-.46 1.28.17 1.9zm2.55-.38c-.86-.11-1.63-.41-2.36-1.14 1.21-.15 1.7.65 2.36 1.14zm-10.74-10.5c1.57.82 2.98.05 4.69-.34-1.41-.87-2.3-2-3.68-2.43-.76-.23-1.86.08-2.06.6-.26.68.29 1.77 1.05 2.16zm-.18-1.74c.11-.34.45-.03.68-.05.89-.07 1.46.72 2.3.76.11 0 .21.16.33.25-.2.23-.32.63-.7.51-.73-.24-1.5-.35-2.18-.76-.32-.19-.49-.52-.43-.71zM36.4 55.95c-.87-.36-1.86 0-2.06.66-.19.61.51 1.53 1.3 1.77 1.04.31 2.06-.23 2.92 0 .73 0 1.3-.01 1.86 0 .27 0 .58-.06.6-.29.03-.25-.25-.39-.53-.35-.75.09-1.3-.34-1.9-.69-.7-.41-1.44-.78-2.2-1.09zm-1.17.79c1.18-.33 1.9.59 2.82.9-1.06.11-2.14.28-2.82-.9zm14.02-13.71c.39.07.39-.52 0-.74-.7-.39-1.28-.94-1.91-1.42-.35-.27-.78-.58-1.53-.48-.43.32-1.5.08-1.71.97-.25 1.01.74 1.24 1.41 1.63.2.12.44.04.59.14 1.07.66 2.08-.28 3.16-.1zm-4.09-1.24c.9-.84.97-.82 2.61.65-1.03.14-1.86-.1-2.61-.65zm12.22-28.35c.78-.21 1.47-.29 2.17.15.24.15.44.11.66-.06.37-.28.03-.51-.07-.71-.11-.24-.36-.41-.54-.62-1.1-1.34-2.83-.23-3.83-1.05-1.38 0-1.58.31-1.11 1.36.34.77 1.55 1.25 2.71.93zm1.44-.92c-1.12.08-2.27.37-3.59-.41 1.43-.2 2.55-.21 3.59.41zM16.75 45.63c.1.69-1.38.52-.61 1.48-.71-.19-.44-1.23-.64-1.09-.78.56-.59-.63-1-.49-.39.98.64 1.68.53 2.46-.15.97.34 1.54.72 2.25.25-.26-.21-.45.06-.77.48.47.52 1.33 1.41 1.58-.41-.83-.76-1.55-1.25-2.56.46.33.74.51 1 .2.01-.44-.71-.54-.57-1.13.34.32.63.6.97.93.56-1.19-.32-1.93-.62-2.85zm6.76 6.89c.77-.14.9-.37.48-.98l-.03.03v-.02c-.7.18-1.34-.04-1.97-.27-.42-.15-.58-.54-.59-.98 0-.24.1-.4.36-.4.4 0 .83-.4 1.18.15.31.51.67 1 1 1.49h.04-.02c.21-.71-.22-1.78-.93-2.28-.55-.39-1.94-.3-2.42.22-.54.59-.37 1.3-.05 1.92.47.92 1.83 1.32 2.94 1.12zm19.66-38.95c.98.49 2.07.16 3.05.63.31-.29.84.23 1-.33.13-.45-.35-.64-.61-.9-.59-.59-1.44-.84-1.94-1.54-.45-.63-1.07-.59-1.69-.41-.52.15-.82.62-.8 1.1.03.62.33 1.13.98 1.45zm.11-1.68c.19-.23.59-.22.83.05.52.6 1.26.9 1.92 1.48-.99.08-1.74-.28-2.44-.76-.26-.18-.54-.48-.3-.77zm25.77 51.45c0-.29-.16-.5-.42-.52-.79-.07-1.4-.55-2.02-.93-.55-.34-1.04-.67-1.69-.56-.63-.03-1.41-.07-1.52.59-.11.63.57 1.01 1.15 1.3 1.25.61 2.65.26 3.95.59.1.02.57-.07.56-.47zm-4.82-1.32c.86-.25 1.46.15 2.1.74-.9.13-1.63.07-2.1-.74zm4.23-11.45c1.12 1.05 2.4 1.88 3.92 2.28.15.04.39.07.46-.12s.05-.4-.14-.57c-.87-.75-1.46-1.74-2.17-2.63-.32-.4-.68-.58-1.14-.48-.49-.02-.9 0-1.19.45-.31.48.07.88.27 1.07zm2.19.54c-.73-.26-1.35-.64-1.84-1.29 1.36-.54 1.39.68 1.84 1.29zm5.39 10.54c-.81-.4-1.69.08-1.69 1.05.02.17.11.5.44.76 1 .76 2.22 1.03 3.37 1.43.59.2.52-.47.38-.66-.71-.97-1.38-2.02-2.5-2.58zm-1.02.77c.96-.12 1.46.41 1.83 1.14-.73-.17-1.39-.42-1.83-1.14zM61.8 20.87c-.1-.67-.72-.91-.91-1.5.74.52 1.35 1.21 2.22 1.52-1.46-1.64-3.09-3.07-4.86-4.34-.06.06-.12.12-.18.19.19.23.37.45.67.83-1.05-.34-1.53-1.27-2.54-1.23 1.83 1.55 3.75 2.99 5.59 4.54zm18.39 30.68c-.59-1.11-.53-2.4-1.02-3.54-.21-.49-.58-.74-1.07-.88-.67-.02-.98.86-.65 1.73.42 1.11 1.35 1.89 1.89 2.93.13.25.4.29.64.15.13-.07.32-.17.2-.39zm-1.66-2.09c-.31-.46-.53-.88-.59-1.56.53.51.73.94.59 1.56zM41 68.72c-3.7-1.55-7.56-2.56-11.51-3.22 3.7 1.55 7.63 2.29 11.51 3.22zm16.16-17.08c.08-.37-.36-.35-.57-.46-.85-.45-1.47-1.14-2.13-1.8-.51-.51-1.13-.82-1.68-.2-.56.63-.13 1.25.41 1.67.9.71 1.95 1.07 3.01 1.15.43.02.85.07.95-.36zm-3.12-1.21c-.35-.19-.82-.3-.6-.91.36.19.82.25.9.76 0 .06-.13.25-.3.16zm17.34-6.69c.2.36.4.55.84.34-2.08-3.16-3.31-6.84-5.97-9.63.87 2.04 2.18 3.83 3.1 5.83.56 1.21 1.37 2.3 2.03 3.46zM60.4 68.97c-.42.08-.72.38-.61 1 .22 1.18 1.07 1.09 2 1.09.61.17 1.26-.21 1.96-.22.55-.01.6-.39.24-.67-1.05-.82-2.2-1.47-3.6-1.2zm.04.94c.69-.65 1.2-.06 1.94.27-.8.03-1.41.16-1.94-.27zm-32.81-6.97c-.61-.79-1.47-1.52-2.61-1.61-.87-.07-1.2.4-.85 1.19.49 1.08 3.08 1.84 4.38 1.28-.18-.48-.64-.49-.92-.86zm-2.77-.74c.84-.05 1.25.28 1.65.81-.62-.08-1.05-.36-1.65-.81zm49.33-33.32c.21-.2.21-.66.25-1.01.02-.11-.1-.25-.16-.37-.57-1.25-1.29-2.42-2.1-3.52-.38-.51-.69-1.16-1.42-1.38.8 1.59 1.98 2.94 2.72 4.55-.95-.76-1.38-1.98-2.44-2.63.64 1.45 1.61 2.67 2.53 3.92.15.21.42.61.62.43zm-43.13-1.64c-.54.03-1.06.12-1.18.75-.13.7.1 1.24.82 1.45.65.19 1.3.44 1.93.33.39 0 .71.03 1.02-.01.29-.04.53-.2.4-.57-.27-.76-2.19-2.01-2.99-1.96zm-.21 1.52c-.22-.09-.52-.13-.46-.41.06-.26.36-.28.62-.26.71.06 1.26.43 1.92 1.01-.87.12-1.48-.1-2.09-.34zm-2.07-12.9c3.59 1.16 6.72 3.18 9.85 5.24-1.82-2.34-8.05-5.66-9.85-5.24zM52 14.53c-.71-.16-1.22-.82-2.04-.78.93 1.36 4.15 2.39 5.54 1.83-1.29-.95-2.48-1.53-3.74-1.83-.25.35.35.43.25.78zm28.71 32.3c-.06-.16-.03-.38-.29-.3-.17.05-.32.2-.21.39.17.28.11.6.18.9.37 1.6.93 3.16.98 4.85.03 1.03.36 2.05.55 3.07.44-1.4.09-2.75-.17-4.11-.3-1.61-.48-3.24-1.04-4.79zm-44-31.21c-.85-.69-1.83-1.11-2.89-1.7.76-.09 1.32.23 1.79.45.54.26.54-.14.7-.32.3-.35-.07-.45-.28-.58-1.06-.66-2.24-.5-3.5.55 1.44.41 2.62 1.23 3.94 1.75.03.01.11-.07.23-.16zm30.19 2.99c.17.16.3.54.66.26-1.43-2.4-4.52-5.13-6.12-5.27.56.61 1.39.87 1.97 1.5 1.11 1.22 2.31 2.35 3.49 3.51z"/><path class="cls-1" d="M17.23 52.93c-2.33-2.64-3.36-5.74-3.96-9.04-.92 1.67 1.97 8.41 3.96 9.04zm52.68-33.21c1.92 2.13 3.3 4.63 4.64 7.15-.15-1.99-1.71-4.39-4.64-7.15zM34.16 36.39c-.18-.2-.31-.61-.58-.42-.35.25-.04.56.19.78.85.82 1.64 1.71 2.61 2.4 1.39.99 2.68 2.13 4.38 2.73-.6-.44-1.23-.85-1.81-1.32-1.64-1.35-3.39-2.56-4.79-4.17zm45.26 4.75c-.38-2.73-1.04-5.39-1.99-7.98-.13.03-.26.05-.39.08.69 2.66 1.39 5.32 2.08 7.98.1-.03.2-.05.3-.08zM41.77 67.08c-2.48-.45-5.01-.73-7.35-1.78-.18-.08-.32-.14-.43.04-.13.22.1.29.22.37.87.56 1.87.81 2.86 1.03 1.59.35 3.17.75 5.02.71-.24-.27-.28-.36-.33-.37zm12.35 3.17c-3.24-.26-6.47-.8-9.74-.96 3.21.58 6.42 1.21 9.74.96zm-4.26-52.67c2.33 1.16 4.21 2.98 6.4 4.35-1.77-1.99-3.71-3.73-6.4-4.35zm23.91 26.44c-1.33-2.62-2.77-5.17-4.48-7.57l-.27.16c1.49 2.52 2.98 5.05 4.47 7.57l.28-.17zm-.11 23.95c-2.36-.31-4.75-.25-7.25-.41.95.82 6.44 1.05 7.25.41zM17.49 54.26c-.19 1.47 2.27 5.23 3.93 6.07-.57-1.07-1.53-1.85-1.91-2.99l-.44-.68c-.94-.47-.88-1.64-1.57-2.39zm10-26.53c-2.37-1.41-4.06-3.57-6.21-5.54.5 1.61 4.45 5.1 6.21 5.54zm23.1 40.85c-.82 0-1.68-.61-2.78.07 2.81.42 5.33.87 7.91.65-.85-.27-1.73-.26-2.58-.4-.85-.14-1.72-.31-2.55-.32zm-37.3-19.86c.65 2.16 1.39 4.28 2.97 6.02-.87-2.05-1.75-4.1-2.62-6.15l-.35.13zm62.14-3.13c-.95-2.24-1.99-4.43-3.18-6.56l-.37.18c1.08 2.18 2.16 4.35 3.24 6.53.1-.05.2-.1.31-.15zm-7.71-27.55c-1.22-1.19-2.36-2.31-3.09-3.02.54.91 1.84 1.87 3.09 3.02z"/><path d="M67.72 18.04c.3.27.59.55.87.85" fill="none" stroke="#0c1013" stroke-linecap="round" stroke-linejoin="round" stroke-width="0"/><path class="cls-1" d="M34.36 63.39c-.2-.17-.29-.33-.39-.34-1.42-.06-2.72-.67-4.11-.89-.2-.03-.41-.44-.6-.05-.16.34.14.47.4.58 1.45.63 2.96.87 4.7.69zm-7.99-8.93c-.17.2.03.31.14.42 1.39 1.34 3.08 2.08 4.97 2.35-1.61-.85-3.24-1.61-4.68-2.7-.14-.1-.26-.27-.43-.07zm18.69-.13c.03-.1.06-.2.09-.29-.54-.25-1.08-.5-1.63-.75-.52-.24-1.12-.36-1.54-.77-.14-.14.07-.71-.42-.4-.39.24-.42.78-.08.98 1.1.65 2.23 1.32 3.58 1.23zm17.66 11.3c-2.08-.51-4.07-1.16-6.24-1.88 1.04 1.14 5.12 2.32 6.24 1.88zm1.76-44.22c-1.14-1.7-2.68-3.02-4.22-4.35-.16-.13-.26-.18-.4 0-.18.23.06.3.15.39 1.03.98 2.09 1.93 3.11 2.92.41.39.74.86 1.1 1.3.08-.09.17-.17.25-.26zm-9.64-4.05c1.48.97 2.97 1.94 4.45 2.91-1.15-1.52-2.6-2.57-4.3-3.25-.05.11-.1.22-.15.34zm13.84 14.82c.91 1.42 1.59 2.99 3.01 4.03-.81-1.4-1.62-2.81-2.44-4.2-.1-.17-.26-.39-.5-.29-.17.08-.16.32-.07.47zM57.67 20.51c-.27-.53-.69-.67-1.02-.89-.93-.63-1.75-1.43-2.76-1.96-.24-.13-.47-.26-.66-.08-.19.17.1.34.13.53.82.15 1.32.81 1.97 1.24.7.46 1.35 1.05 2.34 1.17z"/><path class="cls-1" d="M53.36 18.11h-.02l.03.02v-.02zM22.44 59.49c-1.41-1.37-2.6-2.58-3.36-4.16-.51.51.02.9-.02 1.31l.44.68c.86.72 1.47 1.78 2.93 2.17zm41.17 5.41c-1.63-1.07-3.6-1.17-5.37-1.84 1.58 1.2 3.52 1.41 5.37 1.84zm13.4 3.2c-1.02-.03-1.91.73-2.98.47-.07-.02-.19.18-.29.27.13.1.25.28.39.29.75.08 1.52-.09 2.25.22.11.05.37-.04.28-.17-.55-.74.2-.36.38-.45.2-.11.42-.2.61-.28-.13-.41-.39-.35-.64-.35zM48.42 14.13c-.12.27.18.32.38.42.67.34 1.3.75 1.97 1.08.67.33 1.27.85 2.1.77-1.23-.84-2.42-1.71-3.77-2.31-.26-.12-.52-.34-.68.03zm31.79 53.3c.13-.03.32-.08.35-.16.38-1.29.66-2.59.61-3.95-1 1.14-.65 2.61-1.09 3.88-.02.06.1.23.13.22zm-49.47-8.77l.16-.23c-1.75-1.21-3.51-2.42-5.26-3.62 1.43 1.67 3.23 2.82 5.11 3.85zm-5.6-35.72l-.21.32c1.38 1.2 2.95 2.1 4.72 2.63-1.51-.98-3.01-1.97-4.52-2.95zm-4.59 30.99c.23 1.45 2.45 3.73 3.65 3.93-1.27-1.2-2.41-2.42-3.65-3.93zM51.6 17.55c1.42 1.05 2.84 2.1 4.26 3.14-.57-1.15-1.69-1.69-2.5-2.56-.65-.01-.96-.79-1.76-.58zm1.76.58l-.03-.03.03.03zm11.38 2.39c-1.01-1.57-2.23-2.91-3.91-3.78 1.33 1.24 2.5 2.63 3.91 3.78zM51.76 67.8c1.59.64 3.25.78 4.96.57-1.65-.24-3.25-.77-4.96-.57zm-14.75.73c-1.45-.4-2.81-1.1-4.53-1.31.99.91 3.41 1.6 4.53 1.31zm.59-6.31c-1.5-.46-3.01-.9-4.5-1.39-.22-.07-.35-.06-.39.11-.06.25.17.32.36.38 1.46.47 2.92.91 4.43 1.17l.09-.28zm36.18-22.74l-.34.17c.55 1.65 1.48 3.11 2.7 4.42-.79-1.53-1.57-3.06-2.36-4.59zM20.24 55.41c-.03-.07-.13-.28-.31-.12-.16.14-.24.26-.15.53.18.48.54.88.88 1.14.75.57 1.22 1.62 2.65 1.63-1.34-.97-2.42-1.88-3.08-3.17zM52.05 8.98c-1.26-.72-3.24-.97-4.37-.52 1.42.2 2.79.76 4.37.52zm11.02 8.09c1.19 1.18 2.37 2.36 3.56 3.53-1.04-1.32-2.04-2.7-3.56-3.53zM37.63 37.93c-.52.69.5.82.84 1.12.77.69 1.61 1.36 2.75 1.44-.85-.6-1.69-1.22-2.55-1.8-.38-.26-.79-1.09-1.04-.75zm32.49-5.41c-.35.3.38.57.56.9.15.27.3.54.49.78.49.59.78 1.36 1.68 1.59-.6-.88-1.15-1.78-1.81-2.61-.23-.28-.5-1.01-.92-.65zM43.76 63.21c-.66-.21-1.39 0-2-.41-.56-.01-1.14.07-1.86-.28.64.7 3.27 1.26 4.87 1.16-.33-.31-.67-.35-1.01-.47zM32.23 15.42c1.39.91 2.86 1.62 4.51 1.93-1.46-.75-2.89-1.54-4.51-1.93zM27.78 26.6c-1.25-.98-2.5-1.97-3.75-2.95.92 1.43 2.15 2.43 3.75 2.95zm3.41 35.15c.52.14 1.04.28 1.56.43.64.19 1.29.37 2 .08-1.15-.32-2.3-.63-3.45-.96-.2-.06-.41-.2-.48.09-.06.24.17.31.37.37zM51.68 9.7c-1.43-.08-2.83-.7-4.3-.24 1.41.35 2.84.54 4.3.24zm-10 52.08c-1.65-.37-2.9-1.1-4.3-1.25 1.2.94 3.02 1.49 4.3 1.25zm-7.13-49.43c1 .7 2.17.97 3.37 1.22-.96-.78-2.07-1.28-3.37-1.22zm40.96 24.87c.1 1.29.67 2.42 1.3 3.56 0-1.33-.74-2.41-1.3-3.56zm-36.26 24.8c-1.33-.49-2.42-1.32-3.9-1.34.86.72 3.06 1.5 3.9 1.34zm41.65-.22c.74-.48.83-1.19.5-3.82-.55 1.19 0 2.52-.5 3.82zm-9.69 7.36c-.19 0-.43-.05-.46.26-.04.37.21.37.47.37.85 0 1.67-.1 2.6-.64h-2.61zM28.44 54.85c-.12.18.03.28.19.39.87.53 1.68 1.18 2.94.97-.92-.56-1.92-.75-2.66-1.41-.11-.1-.37-.11-.47.05zm7.6-42.9c.84.47 1.73.75 2.86.67-.93-.77-1.83-.98-2.86-.67zm9.81 49.85c-1.12-.23-2.24-.47-3.36-.7 1 .89 2.16.9 3.36.7zm-13.3-5.94c-.79-.38-1.48-1.03-2.43-.96.71.62 1.5.99 2.43.96zm40.73-20.37c-.42-1.72-.59-2.03-1.28-2.25.26.79.45 1.56 1.28 2.25zm-32.15 3.6c-.44-.65-1.3-.67-1.57-1.39-.06-.16-.24-.1-.35 0-.16.13-.16.29-.02.44.51.53 1.09.9 1.93.95zm1.58 12.49c.2.03.4-.01.6-.02-.05-.4-.33-.35-.48-.47-.25-.2-.51-.2-.76-.03-.08.06-.15.28-.11.36.17.32.49.13.74.16zm-.61 10.79c-.32.03-.42.13-.34.42h2.31c-.84-.29-1.37-.47-1.96-.42z"/><path class="cls-1" d="M41.76 62.79h-.02l.03.03v-.03zm34.72-19.55c-.1.72.26 1.07.6 1.56.06-.66-.29-1.01-.6-1.56zM18.6 52.58c.15-.61-.25-.78-.68-1.06.03.55.23.87.68 1.06zM7.17 27.41c-.09.04-.1.23-.14.36.13.04.28.14.37.1 1-.45 2.14-.62 2.99-1.6-1.43-.4-2.21.67-3.22 1.15zm6.44.53c-1.51.43-2.95 1.04-4.25 1.94 1.55-.37 2.98-.97 4.25-1.94zm.38-1.83c-.4.08-1 .24-1.12-.05-.13-.3-.24-.34-.43-.28-.18.06-.33.23-.35.47-.03.39.26.29.47.37 1.11.43 1.97-.24 2.89-.65-.54-.27-.98.05-1.46.14zm-8.36 2.86c-.12.05-.34.14-.21.36.1.17.22.11.41.07 1.31-.29 2.42-.98 3.52-1.67-.03-.08-.07-.16-.1-.24-1.21.49-2.42.97-3.62 1.47zm7.09-3.44c.66 0 1.37.17 2.07-.49-.76-.01-1.35.25-1.9-.06-.21-.12-.33-.05-.37.16-.03.17-.05.39.2.39z"/></g></svg>