<svg width="60" height="43" fill="none" xmlns="http://www.w3.org/2000/svg"><path opacity=".5" d="M0 16.071C0 7.192 7.192 0 16.071 0h1.072a4.281 4.281 0 014.286 4.286 4.281 4.281 0 01-4.286 4.285H16.07a7.505 7.505 0 00-7.5 7.5v1.072h8.572c4.727 0 8.571 3.844 8.571 8.571v8.572c0 4.727-3.843 8.571-8.571 8.571H8.57c-4.726 0-8.57-3.844-8.57-8.571V16.07zm34.286 0C34.286 7.192 41.478 0 50.357 0h1.072a4.281 4.281 0 014.285 4.286A4.281 4.281 0 0151.43 8.57h-1.072a7.505 7.505 0 00-7.5 7.5v1.072h8.572c4.727 0 8.571 3.844 8.571 8.571v8.572c0 4.727-3.844 8.571-8.571 8.571h-8.572c-4.727 0-8.571-3.844-8.571-8.571V16.07z" fill="#FDC236"/></svg>