<svg width="682.667" height="682.667" xmlns="http://www.w3.org/2000/svg"><defs><clipPath clipPathUnits="userSpaceOnUse" id="a"><path d="M0 512h512V0H0z"/></clipPath></defs><g clip-path="url(#a)" transform="matrix(1.33333 0 0 -1.33333 0 682.667)" fill="none" stroke="#000" stroke-width="30" stroke-linecap="round" stroke-linejoin="round" stroke-miterlimit="10"><path d="M207.8 127.467v241h80.334a64.352 64.352 0 0045.469-18.822c12.05-12.05 18.798-28.398 18.798-45.445 0-35.491-28.76-64.266-64.267-64.266H175.667m112.467-64.267H175.667"/><path d="M256 497c133.032 0 241-107.992 241-241 0-133.008-107.968-241-241-241C122.968 15 15 122.992 15 256c0 133.008 107.968 241 241 241z"/></g></svg>