<svg height="512" viewBox="0 0 24 24" width="512" xmlns="http://www.w3.org/2000/svg"><path d="M4.5 3a.502.502 0 01-.354-.146L2.5 1.207.854 2.854a.5.5 0 01-.707-.707l2-2a.5.5 0 01.707 0l2 2A.5.5 0 014.5 3zm17 21a.5.5 0 01-.354-.853l1.646-1.646-1.646-1.646a.5.5 0 01.707-.707l2 2a.5.5 0 010 .707l-2 2A.501.501 0 0121.5 24z"/><path d="M2.5 24a.5.5 0 01-.5-.5V.75a.5.5 0 011 0V23.5a.5.5 0 01-.5.5z"/><path d="M23.25 22H.5a.5.5 0 010-1h22.75a.5.5 0 010 1zM13 10a.507.507 0 01-.18-.033l-6.5-2.5a.5.5 0 010-.934l6.5-2.5a.505.505 0 01.359 0l6.5 2.5a.5.5 0 01.001.934l-6.5 2.5A.507.507 0 0113 10zM7.893 7L13 8.964 18.107 7 13 5.036z"/><path d="M13 18a.507.507 0 01-.18-.033l-6.5-2.5A.5.5 0 016 15V7a.5.5 0 011 0v7.657l6 2.308 6-2.308V7a.5.5 0 011 0v8a.5.5 0 01-.32.467l-6.5 2.5A.507.507 0 0113 18z"/><path d="M13 18a.5.5 0 01-.5-.5v-8a.5.5 0 011 0v8a.5.5 0 01-.5.5z"/></svg>